<?xml version="1.0" standalone="no"?>
<!DOCTYPE svg PUBLIC "-//W3C//DTD SVG 20010904//EN"
 "http://www.w3.org/TR/2001/REC-SVG-20010904/DTD/svg10.dtd">
<svg version="1.0" xmlns="http://www.w3.org/2000/svg"
 width="629.000000pt" height="619.000000pt" viewBox="0 0 629.000000 619.000000"
 preserveAspectRatio="xMidYMid meet">

<g transform="translate(0.000000,619.000000) scale(0.100000,-0.100000)"
fill="#000000" stroke="none">
<path d="M2525 6178 c-523 -126 -851 -269 -1218 -532 -213 -153 -473 -399
-637 -606 -350 -440 -587 -1000 -655 -1551 -21 -168 -21 -610 0 -778 68 -551
305 -1111 655 -1551 105 -132 325 -357 453 -463 412 -342 874 -564 1398 -673
116 -24 126 -24 629 -24 503 0 513 0 629 24 636 132 1175 427 1632 893 246
251 419 494 569 798 135 274 207 484 273 790 l32 150 0 445 0 445 -32 150
c-66 306 -138 516 -273 790 -150 304 -323 547 -569 798 -407 415 -863 685
-1421 842 -237 66 -219 65 -850 64 -331 -1 -592 -5 -615 -11z m2318 -1239 c83
-42 124 -77 141 -119 25 -63 20 -97 -27 -182 l-43 -78 -174 101 c-96 55 -179
104 -183 108 -8 8 39 95 72 135 49 58 138 73 214 35z m-523 -222 l0 -222 -186
-320 c-102 -176 -199 -342 -214 -370 -27 -48 -30 -61 -45 -273 -17 -235 -15
-247 27 -276 42 -30 69 -19 239 93 90 59 167 106 172 104 4 -2 7 -452 7 -999
l0 -994 -1375 0 -1375 0 0 1740 0 1740 1375 0 1375 0 0 -223z m398 -69 c97
-56 179 -103 180 -104 5 -4 -31 -64 -38 -64 -5 0 -351 198 -358 205 -4 4 30
65 36 65 2 0 83 -46 180 -102z m-3208 -1583 l0 -1665 1270 0 1270 0 0 -80 0
-80 -1375 0 -1375 0 0 1738 c0 956 3 1742 7 1745 3 4 51 7 105 7 l98 0 0
-1665z m3162 1495 c95 -55 173 -104 173 -108 0 -6 -285 -500 -420 -727 -22
-38 -58 -99 -79 -136 -37 -63 -43 -68 -212 -177 -96 -62 -181 -112 -189 -112
-9 0 -18 6 -21 13 -2 7 2 107 10 221 l15 207 184 317 c101 174 221 381 267
460 45 78 86 142 90 142 5 0 86 -45 182 -100z"/>
<path d="M2084 4295 c-4 -8 -4 -22 0 -30 5 -13 59 -15 433 -13 l428 3 0 25 0
25 -428 3 c-374 2 -428 0 -433 -13z"/>
<path d="M2092 3871 c-8 -5 -12 -17 -10 -27 3 -18 20 -19 433 -19 l430 0 0 25
0 25 -420 2 c-231 2 -426 -1 -433 -6z"/>
<path d="M2082 3418 l3 -23 651 -3 c589 -2 652 -1 658 14 3 9 4 20 0 25 -3 5
-278 9 -660 9 l-655 0 3 -22z"/>
<path d="M2082 2988 l3 -23 888 -3 887 -2 0 25 0 25 -891 0 -890 0 3 -22z"/>
<path d="M2076 2565 c-3 -8 2 -21 10 -30 23 -22 1055 -23 1074 0 7 8 10 22 6
30 -5 13 -72 15 -545 15 -465 0 -540 -2 -545 -15z"/>
<path d="M2081 2136 c-9 -11 -8 -18 4 -30 15 -14 101 -16 883 -16 477 0 873 4
880 9 8 5 12 17 10 27 -3 18 -31 19 -884 22 -745 2 -883 0 -893 -12z"/>
<path d="M3948 3408 c-3 -46 -4 -84 -3 -86 4 -5 144 82 145 90 0 7 -121 78
-132 78 -3 0 -8 -37 -10 -82z"/>
</g>
</svg>
