<?xml version="1.0" standalone="no"?>
<!DOCTYPE svg PUBLIC "-//W3C//DTD SVG 20010904//EN"
 "http://www.w3.org/TR/2001/REC-SVG-20010904/DTD/svg10.dtd">
<svg version="1.0" xmlns="http://www.w3.org/2000/svg"
 width="1379.000000pt" height="189.000000pt" viewBox="0 0 1379.000000 189.000000"
 preserveAspectRatio="xMidYMid meet">

<g transform="translate(0.000000,189.000000) scale(0.100000,-0.100000)"
fill="#000000" stroke="none">
<path d="M296 1565 c-9 -13 -16 -29 -16 -35 0 -6 -4 -18 -9 -28 -5 -9 -19 -44
-31 -77 -27 -74 -34 -92 -50 -130 -16 -37 -22 -55 -50 -130 -21 -58 -30 -80
-49 -127 -5 -13 -28 -71 -50 -130 l-41 -106 0 -326 0 -326 176 2 176 3 55 140
c56 142 64 163 84 213 23 53 28 67 41 107 7 22 19 50 26 63 l14 22 309 0 c268
0 309 -2 309 -15 0 -12 -48 -141 -101 -272 -5 -13 -13 -33 -18 -45 -28 -70
-64 -167 -71 -190 l-9 -28 298 0 297 0 22 48 c12 27 22 52 22 55 0 4 8 26 19
50 10 23 38 92 61 152 23 61 47 121 52 135 6 14 14 34 18 45 4 11 12 32 19 48
6 15 15 37 20 50 5 12 43 110 86 217 91 231 95 240 106 262 5 10 9 22 9 28 0
6 9 29 19 53 47 105 111 279 106 288 -4 5 -129 9 -304 9 l-298 0 -37 -97 c-21
-54 -47 -123 -58 -153 -11 -30 -24 -64 -28 -75 -4 -11 -13 -36 -20 -55 -7 -19
-16 -44 -20 -55 -4 -11 -14 -36 -21 -55 -6 -19 -19 -41 -27 -47 -19 -15 -588
-19 -611 -4 -11 7 7 60 88 263 55 139 101 259 101 266 0 9 -70 12 -299 12
l-299 0 -16 -25z"/>
<path d="M4137 1563 c-8 -16 -24 -55 -36 -88 -13 -33 -27 -70 -32 -82 -5 -13
-13 -33 -18 -45 -4 -13 -13 -34 -19 -48 -11 -29 -180 -455 -192 -485 -13 -34
-32 -79 -41 -97 -5 -10 -9 -22 -9 -28 0 -6 -8 -29 -19 -53 -10 -23 -38 -91
-61 -152 -55 -143 -55 -145 -69 -177 -6 -16 -15 -38 -20 -50 -4 -13 -16 -40
-25 -61 -9 -21 -16 -40 -16 -42 0 -3 129 -4 287 -3 l287 3 19 50 c10 28 23 59
27 70 4 11 43 108 85 215 43 107 81 205 86 218 5 12 13 32 18 45 4 12 13 34
20 50 6 15 16 39 22 55 6 15 15 35 20 44 5 10 9 22 9 28 0 6 9 29 19 53 10 23
42 103 71 177 29 74 77 196 106 270 30 74 54 141 54 148 0 9 -63 12 -280 12
l-279 0 -14 -27z"/>
<path d="M6863 1579 c-7 -7 -13 -19 -13 -26 0 -7 -4 -21 -9 -31 -6 -9 -80
-197 -166 -417 -86 -220 -161 -411 -167 -425 -6 -14 -14 -34 -18 -45 -4 -11
-12 -32 -19 -47 -6 -16 -15 -39 -21 -53 -5 -14 -14 -35 -19 -47 -5 -13 -35
-88 -66 -168 -32 -80 -59 -151 -62 -158 -8 -19 1105 -17 1247 3 145 21 220 38
310 75 178 71 268 133 369 254 87 104 119 152 171 256 44 88 51 104 68 155 24
76 31 105 43 182 10 67 10 93 0 140 -39 171 -158 283 -346 322 -33 7 -78 17
-100 23 -23 5 -290 12 -615 15 -465 4 -577 3 -587 -8z m759 -310 c171 -34 234
-98 232 -234 -1 -153 -109 -356 -240 -453 -118 -88 -203 -112 -410 -119 -115
-4 -163 -2 -168 6 -6 9 127 364 206 551 6 14 15 35 19 48 5 12 13 32 18 45 14
37 33 81 42 99 5 10 9 24 9 32 0 8 8 20 18 25 23 14 207 14 274 0z"/>
<path d="M12363 1578 c-6 -7 -72 -170 -147 -363 -76 -192 -142 -361 -148 -375
-12 -28 -26 -64 -39 -97 -5 -13 -14 -35 -20 -50 -7 -16 -15 -37 -19 -48 -4
-11 -12 -31 -18 -45 -24 -56 -172 -439 -172 -445 0 -3 131 -4 291 -3 248 3
293 5 299 18 13 25 23 52 165 415 75 193 141 360 146 373 5 12 14 33 19 47 6
14 15 36 20 50 6 14 14 35 19 48 4 12 13 33 19 47 52 126 162 413 162 425 0
13 -38 15 -284 15 -215 0 -286 -3 -293 -12z"/>
<path d="M2835 1179 c-255 -34 -411 -91 -560 -202 -169 -127 -298 -358 -299
-538 0 -111 64 -209 169 -257 132 -61 233 -77 470 -76 294 1 475 36 657 127
73 36 198 142 198 167 0 6 -100 10 -283 10 l-284 0 -24 -26 c-93 -100 -295
-112 -337 -19 -16 34 -15 100 1 146 26 74 -15 69 527 69 l488 0 10 28 c6 15
15 43 21 62 37 129 39 165 16 245 -42 143 -172 227 -405 261 -104 15 -270 16
-365 3z m168 -203 c57 -24 72 -50 71 -122 -1 -40 -8 -73 -18 -89 l-16 -25
-189 0 c-215 0 -223 2 -192 64 43 83 108 144 185 172 44 16 121 16 159 0z"/>
<path d="M5775 1179 c-160 -34 -213 -56 -332 -136 -46 -30 -86 -53 -89 -50 -4
3 3 36 15 73 11 36 18 70 15 75 -7 11 -534 12 -552 0 -7 -4 -28 -51 -47 -103
-29 -82 -195 -513 -227 -588 -6 -14 -14 -34 -18 -45 -4 -11 -12 -32 -19 -47
-20 -49 -29 -71 -66 -168 -20 -52 -46 -116 -56 -142 l-19 -48 294 0 294 0 47
118 c26 64 50 121 55 125 4 5 20 -4 36 -18 53 -49 88 -72 149 -95 111 -43 386
-26 513 30 65 29 82 38 137 69 67 39 196 162 242 231 114 171 171 414 128 541
-31 91 -123 155 -256 178 -75 13 -185 13 -244 0z m-157 -269 c18 -11 37 -32
43 -48 12 -30 5 -137 -13 -180 -47 -117 -49 -123 -91 -183 -62 -92 -144 -139
-239 -139 -60 0 -103 21 -123 60 -20 39 -19 75 6 151 56 169 136 286 229 334
59 31 141 33 188 5z"/>
<path d="M9310 1175 c-169 -23 -277 -54 -404 -117 -230 -114 -369 -300 -425
-570 -23 -108 24 -216 121 -280 113 -76 244 -101 513 -101 406 -1 676 82 825
250 l42 48 -288 3 -288 2 -36 -35 c-94 -92 -274 -100 -321 -14 -25 47 -6 178
29 207 12 9 127 12 498 12 l482 0 19 43 c48 104 55 253 15 338 -24 51 -91 118
-149 147 -142 73 -392 99 -633 67z m207 -205 c61 -37 79 -110 47 -190 l-16
-40 -197 2 -196 3 1 32 c2 37 52 112 99 148 81 62 201 83 262 45z"/>
<path d="M10940 1175 c-243 -30 -411 -95 -516 -199 -51 -52 -75 -88 -102 -155
-28 -68 -28 -100 1 -142 40 -60 92 -80 287 -109 314 -47 402 -66 463 -97 38
-19 38 -73 -1 -113 -39 -38 -88 -52 -213 -57 -128 -6 -163 6 -187 68 l-15 39
-262 0 -262 0 -13 -46 c-21 -75 13 -145 90 -184 107 -54 263 -74 580 -74 294
0 421 15 575 66 79 26 100 35 165 79 65 44 97 77 139 143 26 43 31 60 31 115
0 53 -4 70 -25 97 -48 63 -147 95 -415 134 -217 31 -320 54 -357 78 -56 35 -8
114 92 151 123 46 259 9 267 -73 l3 -31 268 -3 267 -2 11 27 c6 16 9 54 7 86
-4 49 -9 62 -38 92 -37 38 -96 69 -162 85 -159 38 -475 50 -678 25z"/>
<path d="M13025 1033 c-71 -64 -164 -146 -205 -183 -41 -37 -102 -91 -135
-120 -33 -29 -63 -56 -68 -59 -6 -6 42 -141 93 -266 4 -11 18 -47 30 -80 26
-71 39 -104 51 -127 5 -10 9 -25 9 -33 0 -13 47 -15 375 -15 l375 0 -25 45
c-14 25 -37 66 -51 93 -15 26 -40 72 -57 102 -17 30 -59 106 -94 169 -35 63
-66 124 -69 137 -5 19 10 34 113 111 65 48 120 90 123 93 3 3 21 17 40 30 19
13 37 27 40 30 3 3 21 17 40 30 19 13 37 27 40 30 3 3 35 28 73 55 37 27 67
55 67 62 0 10 -62 13 -317 12 l-318 0 -130 -116z"/>
</g>
</svg>
